<svg width="138" height="50" viewBox="0 0 138 50" fill="none" xmlns="http://www.w3.org/2000/svg">
<path d="M87.9512 22.5371H86.5042V31.1697H87.9512V22.5371ZM66.9254 27.9956C67.2049 26.5513 67.5064 25.1236 67.8024 23.9484C68.0819 25.129 68.3998 26.5513 68.6739 27.9956H66.9254ZM68.8383 22.8007C68.789 22.6085 68.7013 22.5316 68.4053 22.5316H67.2542C66.9473 22.5316 66.8596 22.6085 66.8103 22.8007C66.1635 25.0082 65.44 28.402 64.9576 31.1697H66.3663C66.454 30.5601 66.5691 29.9121 66.6842 29.2641H68.9041C69.0302 29.9121 69.1288 30.5601 69.222 31.1697H70.691C70.2086 28.402 69.4741 25.0247 68.8438 22.8007M92.5335 42.279H93.9805V33.6463H92.5335V42.279ZM89.2009 33.6463H87.7594V42.279H91.5853V40.983H89.2009V33.6463ZM69.4138 34.9423H71.0856V42.2845H72.5272V34.9423H74.1989V33.6463H69.4084V34.9423H69.4138ZM82.1083 37.4684H81.4505V34.8929H82.1083C82.8428 34.8929 83.1716 35.4036 83.1716 36.1779C83.1716 36.9522 82.8428 37.4739 82.1083 37.4739M84.6022 36.1615C84.6022 34.6238 83.8294 33.6463 82.1576 33.6463H80.0035V42.279H81.4505V38.737H82.0973C82.6016 39.8188 83.1607 41.4058 83.4292 42.279H84.8763C84.6735 41.4168 84.0157 39.5497 83.4183 38.3965C84.2021 38.0176 84.6077 37.2158 84.6077 36.1615M95.8661 23.7781H96.5238C97.2583 23.7781 97.5872 24.2834 97.5872 25.0577C97.5872 25.832 97.2583 26.3537 96.5238 26.3537H95.8661V23.7781ZM95.8661 27.6277H96.5129C97.0171 28.704 97.5762 30.2965 97.8448 31.1697H99.2918C99.089 30.3075 98.4313 28.4404 97.8338 27.2817C98.6176 26.9028 99.0232 26.101 99.0232 25.0467C99.0232 23.5091 98.2504 22.5316 96.5786 22.5316H94.4245V31.1642H95.8716V27.6222L95.8661 27.6277ZM74.5387 23.8276H76.2105V31.1697H77.6575V23.8276H79.3293V22.5316H74.5387V23.8276ZM76.2982 38.5228H78.5674V37.2543H76.2982V34.9423H78.847V33.6463H74.8567V42.279H78.9621V40.983H76.2982V38.5228ZM83.7362 26.1285H81.7191V22.5371H80.2721V31.1697H81.7191V27.4245H83.7362V31.1697H85.1832V22.5371H83.7362V26.1285ZM127.175 27.4135H129.444V26.145H127.175V23.8331H129.723V22.5371H125.733V31.1697H129.839V29.8737H127.175V27.4135ZM122.214 27.7265H123.19V28.1219C123.19 29.2751 123.025 29.9725 122.28 29.9725C121.535 29.9725 121.343 29.3136 121.343 27.408V26.2878C121.343 24.3987 121.556 23.7232 122.28 23.7232C122.85 23.7232 123.053 24.1296 123.13 24.9314H124.472V24.6513C124.472 23.4816 123.913 22.3888 122.291 22.3888C120.86 22.3888 119.896 23.1356 119.896 26.2493V27.4794C119.896 30.5546 120.811 31.3015 122.264 31.3015C123.716 31.3015 124.571 30.5931 124.571 28.1164V26.425H122.214V27.721V27.7265ZM133.094 26.3591H132.437V23.7836H133.094C133.829 23.7836 134.158 24.2888 134.158 25.0631C134.158 25.8374 133.829 26.3591 133.094 26.3591ZM135.588 25.0522C135.588 23.5146 134.815 22.5371 133.144 22.5371H130.99V31.1697H132.431V27.6277H133.078C133.582 28.704 134.141 30.2965 134.41 31.1697H135.857C135.654 30.3075 134.996 28.4404 134.399 27.2817C135.183 26.9028 135.588 26.101 135.588 25.0467M136.805 29.687V30.011C136.805 30.994 136.509 31.7792 136.432 32.1801H137.035C137.26 31.8671 138 31.0818 138 30.0879V29.687H136.805ZM117.577 27.8034L115.472 22.5316H114.042V31.1642H115.412V25.5794L117.643 31.1642H118.947V22.5316H117.577V27.8034ZM101.435 29.687H100.24V30.011C100.24 30.994 99.9441 31.7792 99.8673 32.1801H100.47C100.695 31.8671 101.435 31.0818 101.435 30.0879V29.687ZM97.4447 40.1373C96.9788 38.1713 96.469 35.7166 96.1675 33.6463H94.7095C95.1919 36.4415 95.9154 39.7913 96.5457 41.9769C96.6115 42.1966 96.6883 42.2845 96.9788 42.2845H97.8503C98.1517 42.2845 98.2175 42.1966 98.2942 41.955C98.9301 39.7968 99.6481 36.4415 100.13 33.6518H98.7218C98.4039 35.7221 97.9106 38.1713 97.4447 40.1428M102.279 38.5228H104.548V37.2543H102.279V34.9423H104.828V33.6463H100.838V42.279H104.943V40.983H102.279V38.5228ZM108.319 37.3256L107.864 36.9687C107.36 36.5733 107.026 36.1834 107.026 35.6453C107.026 35.151 107.294 34.8215 107.738 34.8215C108.308 34.8215 108.484 35.2773 108.539 35.8869H109.909V35.5958C109.909 34.3657 109.202 33.5255 107.755 33.5255C106.439 33.5255 105.612 34.3273 105.612 35.7221C105.612 36.8149 106.132 37.4629 106.965 38.1054L107.42 38.4624C108.078 38.9841 108.626 39.4014 108.626 40.1647C108.626 40.7633 108.358 41.0928 107.826 41.0928C107.218 41.0928 106.916 40.5601 106.889 39.8243H105.535V40.1428C105.535 41.4772 106.258 42.3888 107.777 42.3888C109.196 42.3888 110.046 41.5651 110.046 40.0769C110.046 38.7534 109.448 38.1988 108.325 37.3202M111.646 27.397C111.646 28.9346 111.559 29.9616 110.72 29.9616C109.881 29.9616 109.794 28.9346 109.794 27.397V26.3042C109.794 24.7666 109.881 23.7397 110.72 23.7397C111.559 23.7397 111.646 24.7666 111.646 26.3042V27.397ZM110.72 22.4053C109.262 22.4053 108.352 23.1576 108.352 26.2658V27.4355C108.352 30.5437 109.262 31.296 110.72 31.296C112.178 31.296 113.088 30.5437 113.088 27.4355V26.2658C113.088 23.1576 112.173 22.4053 110.72 22.4053ZM75.2623 29.8737H72.8779V22.5371H71.4309V31.1697H75.2568V29.8737H75.2623ZM43.8167 23.3828C41.8599 23.8001 41.2569 22.0923 39.6235 21.0104C37.9902 19.9286 36.4883 19.5168 34.9755 18.0066C34.3671 17.397 34.2136 16.3591 33.6052 15.7221C32.7995 14.86 32.3116 14.6293 31.2154 14.201C29.297 13.4541 27.6471 12.8995 26.0521 11.5815C25.7835 11.3619 25.1477 11.0708 24.5557 10.961C24.3036 10.9061 24.1885 10.9445 24.1063 11.0434C23.8706 11.3509 23.6514 11.7188 23.4376 12.0703C23.3773 12.1636 23.18 12.4437 23.021 12.5975C22.7141 12.8775 22.3304 13.2345 22.0344 13.3992C20.4284 14.3822 18.3181 15.2169 17.4028 16.8644C17.2329 17.1664 15.4844 17.9846 15.0788 18.3031C14.4429 18.8303 13.8181 19.341 13.1658 19.8243C12.5519 20.2856 11.7078 20.9885 11.072 21.4607C10.7322 21.3344 10.3869 21.2246 10.069 21.1697C9.31803 21.0159 8.6877 20.4338 8.04091 20.0494C7.21325 19.5222 7.27355 19.4673 7.01593 19.3136C6.78572 19.1928 6.6761 19.1049 6.5884 19.0664C5.9745 18.704 5.93613 19.0665 5.05914 19.6046C4.33014 20.0494 3.49152 20.7963 2.86118 21.3894C2.3624 21.8616 1.85264 22.3613 1.33193 22.8721C2.08285 11.5431 11.6256 2.59747 23.2951 2.59747C34.9645 2.59747 44.3154 11.3784 45.2308 22.5371C44.8745 23.0093 44.3703 23.2619 43.8112 23.3828M23.306 0.00549266C10.4362 0.00549266 0 10.4613 0 23.3553C0 28.726 1.81428 33.6573 4.85634 37.6057L5.49216 37.0785C3.79847 34.7776 2.54876 32.1472 1.86909 29.2806C2.06641 29.3245 2.3021 29.3904 2.69675 29.5167C3.99031 29.9341 6.43492 30.7359 8.19439 29.9341C9.31255 29.4069 11.2584 28.9786 12.0038 28.6875C12.7109 28.3965 14.2018 29.0445 12.4423 27.8858H12.4313C12.4313 27.8858 12.382 27.8583 12.3382 27.8418C12.2779 27.8144 12.2231 27.8034 12.1573 27.7869C11.9874 27.7485 10.5732 28.0231 10.2608 27.9791C10.1621 27.9517 10.069 27.9242 9.97577 27.8693C9.20841 27.4519 12.4807 24.8929 12.5903 24.2559C11.653 24.3548 10.8747 24.9478 10.0361 25.3212C9.04945 25.7496 7.96418 25.7661 6.90631 25.777C5.69496 25.777 4.75768 26.7216 3.68885 27.1499C3.13524 27.3861 2.21988 27.5947 1.60599 27.9956C1.56214 27.732 1.52377 27.4684 1.4854 27.2048C1.50733 26.7435 1.55666 26.1944 1.66628 25.5574C1.90746 24.168 2.46654 23.0917 3.72173 21.4278C3.72173 21.4278 4.93856 19.9616 5.65111 19.4893C5.92517 19.2916 6.22664 19.0335 6.51714 19.2092C6.82957 19.4014 6.42944 20.6096 7.26258 20.8127C7.76137 20.9226 7.32288 21.7573 7.49279 22.2405C7.67916 22.7512 5.42638 24.7337 6.01835 24.9698C6.34722 25.1071 7.83811 24.3493 8.63288 24.0967C9.32899 23.877 10.0744 23.8605 10.8363 23.1411C11.6256 22.4053 12.4039 21.9934 12.4039 21.9934C13.0452 21.4552 13.6646 20.9006 14.3004 20.3569C14.9143 19.8133 15.5063 19.2641 16.1037 18.7095C16.4765 18.3526 18.1702 17.408 18.3182 17.0895C19.1074 15.3872 21.1574 14.3877 22.6867 13.3059C22.9662 13.1137 23.2731 12.6963 23.4431 12.4602C23.6185 12.2241 23.7993 11.8671 23.898 11.7518C24.0898 11.5321 24.1392 11.3674 24.3584 11.2576C24.4461 11.2136 24.7914 11.2136 24.9394 11.3784C25.4382 11.9055 26.1124 12.3613 26.1398 12.916C26.1837 13.7727 28.5789 14.5195 29.1271 15.1895C29.3518 15.464 29.4833 15.7276 29.5765 15.9912C29.1545 15.8265 28.7434 15.6178 28.3816 15.3542C28.1405 15.173 27.5759 15.2169 27.2854 15.173C26.4577 15.0192 26.6496 15.4091 27.11 15.8759C27.5759 16.3756 28.124 16.793 28.5515 17.3311C29.0448 17.9407 29.001 18.4404 29.1325 19.1708C29.2805 19.9451 29.741 20.626 30.1246 21.318C30.5138 22.0099 30.4864 22.7457 30.7002 23.4926C30.9304 24.2394 31.5662 24.8655 32.0924 25.4201C32.5418 25.8869 33.5614 27.0401 34.1204 26.793C34.7124 26.5459 35.4469 27.2652 35.6716 27.0566C35.8963 26.8644 35.0796 25.9034 35.3921 25.6178C35.71 25.3267 37.0693 25.7825 37.3489 26.6557C37.6668 27.6826 37.6339 27.765 37.5845 28.4953C37.5517 28.9786 37.3598 29.3685 37.0364 29.7144C36.6308 30.1153 35.6935 30.7963 35.8799 31.4772C36.7404 31.0214 37.6722 30.9775 38.6315 31.0049C39.5633 31.0324 40.2484 30.6425 40.8678 29.9835C41.1418 29.6925 41.9366 28.7644 42.3861 29.2367C42.6601 29.5113 41.8599 30.648 42.7369 30.4119C43.3234 30.2581 43.8386 29.8023 44.3703 29.5113C44.5128 29.4289 44.6443 29.3465 44.7539 29.2641C44.0633 32.1691 42.7862 34.86 41.0487 37.1829L41.6845 37.7101C44.7704 33.7507 46.623 28.7644 46.623 23.3498C46.623 10.4558 36.1868 0 23.317 0M93.3776 29.8737H90.7192V27.4135H92.9884V26.145H90.7192V23.8331H93.268V22.5371H89.2777V31.1697H93.3831V29.8737H93.3776ZM64.2615 29.8737H61.5977V27.4135H63.8669V26.145H61.5977V23.8331H64.1464V22.5371H60.1561V31.1697H64.2615V29.8737ZM14.9637 37.106C14.9253 37.3531 14.58 39.5003 14.2018 41.8726C13.5057 41.7188 12.815 41.4552 12.0422 41.0269C11.2693 40.5986 10.6883 40.1538 10.195 39.6431C12.0038 38.0615 13.6317 36.6392 13.8345 36.469C14.3224 36.0516 14.5581 35.9583 14.7883 36.0791C15.013 36.2054 15.0568 36.469 14.9637 37.106ZM16.3066 33.6299C16.3066 33.6299 16.2517 33.5859 16.186 33.5585C16.1257 33.531 16.0763 33.5036 16.0709 33.4871C16.0709 33.5036 16.0709 33.5036 16.0709 33.5036C14.9746 32.894 13.8893 32.9215 12.6451 33.8386C10.924 35.0851 2.64194 42.1087 2.64194 42.1087L5.03174 44.1461C5.03174 44.1461 6.35818 42.9819 7.9861 41.5706C8.78635 42.2735 9.67979 42.916 10.6938 43.4816C11.6969 44.0362 12.7219 44.4646 13.7359 44.7556C13.3906 46.9028 13.111 48.6436 13.111 48.6436L16.0928 49.5991C16.0928 49.5991 17.6714 38.8413 17.8248 36.7216C17.9399 35.184 17.3918 34.2449 16.3011 33.6354M21.6617 50H24.7421V34.6678H21.6617V50ZM34.241 41.0379C33.4682 41.4662 32.7775 41.7188 32.0869 41.8726C31.7142 39.5003 31.3798 37.3531 31.336 37.106C31.2428 36.469 31.2921 36.2164 31.5169 36.0791C31.7361 35.9583 31.9828 36.0516 32.4596 36.469C32.6679 36.6502 34.2958 38.078 36.0937 39.654C35.6004 40.1538 35.0194 40.6096 34.241 41.0379ZM30.2343 33.4871C30.2343 33.4871 30.1795 33.531 30.1137 33.5585C30.0479 33.5859 30.0041 33.6134 30.0041 33.6134C28.9133 34.223 28.3542 35.162 28.4638 36.6996C28.6173 38.8358 30.1795 49.5936 30.1795 49.5936L33.1667 48.6381C33.1667 48.6381 32.8926 46.8973 32.5528 44.7611C33.5668 44.4536 34.5918 44.0253 35.6004 43.4761C36.6034 42.9215 37.5023 42.268 38.2916 41.5651C39.9195 42.9929 41.2515 44.168 41.2515 44.168L43.6413 42.1307C43.6413 42.1307 35.3701 35.0796 33.6545 33.8331C32.4158 32.9215 31.325 32.8885 30.2343 33.4871ZM61.0441 38.5228H63.3133V37.2543H61.0441V34.9423H63.5928V33.6463H59.6025V42.279H63.7079V40.983H61.0441V38.5228ZM64.2396 34.9423H65.9114V42.2845H67.3584V34.9423H69.0302V33.6463H64.2396V34.9423ZM57.558 26.1285H55.5409V22.5371H54.0994V31.1697H55.5409V27.4245H57.558V31.1697H58.9996V22.5371H57.558V26.1285ZM56.1877 41.0489H55.5409V38.369H56.1877C57.0483 38.369 57.4703 38.8523 57.4703 39.7144C57.4703 40.5766 57.0921 41.0489 56.1877 41.0489ZM55.5409 34.8764H56.1603C56.8455 34.8764 57.2511 35.2224 57.2511 35.9692C57.2511 36.7161 56.8838 37.1225 56.1603 37.1225H55.5409V34.8764ZM57.5854 37.6442C58.2706 37.3421 58.6652 36.7271 58.6652 35.8265C58.6652 34.4152 57.7279 33.6409 56.3576 33.6409H54.1049V42.2735H56.3357C57.9965 42.2735 58.9064 41.4388 58.9064 39.7749C58.9064 38.7479 58.4624 37.9846 57.5909 37.6442M107.579 29.8737H105.195V22.5371H103.748V31.1697H107.574V29.8737H107.579ZM30.8756 29.0994C30.3384 28.045 28.4419 28.8633 27.4772 27.9791C27.2141 27.743 26.6496 27.2323 26.3645 26.3591C26.0905 25.5299 25.6739 24.8655 24.9833 24.3273C23.75 23.3553 20.8231 21.8891 21.0259 19.9066C21.119 19.0225 22.1824 18.8413 22.6154 18.1878C22.8785 17.8144 22.9169 17.3037 23.2293 16.9522C23.5801 16.5513 23.0868 16.5513 22.7415 16.5239C22.007 16.4964 21.4589 17.3037 20.845 17.6332C19.8419 18.1603 18.943 18.9072 17.8139 19.1543C17.4795 19.2202 15.7968 19.7529 16.893 20.0275C17.644 20.2197 18.4881 20.1647 19.1129 20.7084C19.9132 21.4003 20.5654 22.2845 21.3712 22.9764C21.7768 23.3224 22.1769 23.6518 22.5113 24.0857C22.8949 24.5854 22.8456 25.151 23.1306 25.6672C23.4047 26.1669 23.9419 25.7221 24.2817 26.0022C25.3834 26.9138 23.8487 27.3586 23.454 27.7869C22.9388 28.3526 22.8347 28.715 21.8919 29.0994C21.4753 29.2696 18.7621 29.5991 18.4278 29.8517C18.0934 30.0988 18.2688 30.1812 18.3565 30.2801C18.4442 30.3789 18.9101 30.5327 19.1184 30.5437C20.2585 30.6535 23.7665 31.318 24.4845 30.4228C24.9778 29.8023 25.7068 29.7254 26.5125 29.9506C27.0826 30.1043 28.2062 29.9945 29.1874 29.5881C29.7519 29.3575 31.3141 29.341 30.8756 29.1049" fill="#D31145"/>
</svg>
